<svg id="Layer_1" data-name="Layer 1" xmlns="http://www.w3.org/2000/svg" viewBox="0 0 32.56 7.89"><title>aeiga_logo</title><path d="M3.67,4.71H1.79L1.46,5.77H0L2.09,0.08H3.38l2.1,5.69H4ZM2.12,3.65H3.34l-0.61-2Z" transform="translate(0 0.96)"/><path d="M10.22,3.36H8.06V4.71h2.55V5.77H6.69V0.08h3.93V1.14H8.06v1.2h2.16v1Z" transform="translate(0 0.96)"/><path d="M14.08,3.76H13.34v2H12V0.08h2.24a2.5,2.5,0,0,1,1.58.45,1.52,1.52,0,0,1,.57,1.27,1.85,1.85,0,0,1-.24,1,1.71,1.71,0,0,1-.75.63l1.19,2.3V5.77H15.08ZM13.34,2.7h0.87a0.78,0.78,0,0,0,.59-0.21A0.79,0.79,0,0,0,15,1.92a0.8,0.8,0,0,0-.2-0.58,0.77,0.77,0,0,0-.59-0.21H13.34V2.7Z" transform="translate(0 0.96)"/><path d="M22.64,5.07a2.2,2.2,0,0,1-.93.57,4,4,0,0,1-1.34.21,2.38,2.38,0,0,1-1.79-.68,2.77,2.77,0,0,1-.71-1.9V2.77a3.39,3.39,0,0,1,.3-1.47,2.21,2.21,0,0,1,.85-1A2.4,2.4,0,0,1,20.3,0,2.52,2.52,0,0,1,22,.49a2.06,2.06,0,0,1,.69,1.45H21.32A1.08,1.08,0,0,0,21,1.26a1,1,0,0,0-.66-0.2,0.89,0.89,0,0,0-.8.44,2.34,2.34,0,0,0-.29,1.25V3.09a2.28,2.28,0,0,0,.29,1.28,1,1,0,0,0,.92.43,1.15,1.15,0,0,0,.8-0.24V3.67h-1V2.73h2.32V5.07Z" transform="translate(0 0.96)"/><path d="M25.7,5.77H24.33V0.08H25.7V5.77Z" transform="translate(0 0.96)"/><path d="M30.75,4.71H28.87L28.55,5.77H27.08l2.09-5.69h1.29l2.1,5.69H31.09ZM29.2,3.65h1.22l-0.61-2Z" transform="translate(0 0.96)"/><text y="0.96"/></svg>