<svg xmlns="http://www.w3.org/2000/svg" viewBox="0 0 58.21 14.52"><defs><style>.cls-1{fill:#fff;}</style></defs><title>aergia_logo.svg</title><g id="Layer_1" data-name="Layer 1"><path d="M5.51,9.67H2.69L2.2,11.27H0L3.13,2.73H5.06l3.15,8.53H6ZM3.18,8.08H5l-.92-3Z"/><path d="M16.53,7.64H13.29v2h3.82v1.58H11.24V2.73h5.89V4.32H13.29v1.8h3.23Z"/><path d="M23.52,8.25H22.41v3H20.35V2.73h3.36a3.75,3.75,0,0,1,2.37.67,2.28,2.28,0,0,1,.86,1.9,2.77,2.77,0,0,1-.36,1.48,2.56,2.56,0,0,1-1.13.95l1.78,3.44v.09H25ZM22.41,6.67h1.3a1.17,1.17,0,0,0,.88-.31,1.19,1.19,0,0,0,.3-.86,1.21,1.21,0,0,0-.3-.87,1.16,1.16,0,0,0-.88-.31h-1.3Z"/><path d="M37.56,10.21a3.31,3.31,0,0,1-1.39.85,6,6,0,0,1-2,.32,3.57,3.57,0,0,1-2.68-1A4.15,4.15,0,0,1,30.42,7.5V6.77a5.09,5.09,0,0,1,.45-2.2,3.31,3.31,0,0,1,1.27-1.45,3.6,3.6,0,0,1,1.92-.51,3.78,3.78,0,0,1,2.48.73,3.09,3.09,0,0,1,1,2.18h-2a1.62,1.62,0,0,0-.46-1,1.47,1.47,0,0,0-1-.3,1.34,1.34,0,0,0-1.2.66,3.5,3.5,0,0,0-.43,1.88v.52a3.43,3.43,0,0,0,.44,1.92,1.54,1.54,0,0,0,1.37.64,1.73,1.73,0,0,0,1.2-.36V8.12H34.08V6.71h3.49Z"/><path d="M43.35,11.27H41.3V2.73h2.05Z"/><path d="M52.13,9.67H49.31l-.49,1.59h-2.2l3.13-8.53h1.93l3.15,8.53H52.63ZM49.8,8.08h1.83l-.92-3Z"/><path class="cls-1" d="M6.51,8.67H3.69L3.2,10.27H1L4.13,1.73H6.06l3.15,8.53H7ZM4.18,7.08H6l-.92-3Z"/><path class="cls-1" d="M17.53,6.64H14.29v2h3.82v1.58H12.24V1.73h5.89V3.32H14.29v1.8h3.23Z"/><path class="cls-1" d="M24.52,7.25H23.41v3H21.35V1.73h3.36a3.75,3.75,0,0,1,2.37.67,2.28,2.28,0,0,1,.86,1.9,2.77,2.77,0,0,1-.36,1.48,2.56,2.56,0,0,1-1.13.95l1.78,3.44v.09H26ZM23.41,5.67h1.3a1.17,1.17,0,0,0,.88-.31,1.19,1.19,0,0,0,.3-.86,1.21,1.21,0,0,0-.3-.87,1.16,1.16,0,0,0-.88-.31h-1.3Z"/><path class="cls-1" d="M38.56,9.21a3.31,3.31,0,0,1-1.39.85,6,6,0,0,1-2,.32,3.57,3.57,0,0,1-2.68-1A4.15,4.15,0,0,1,31.42,6.5V5.77a5.09,5.09,0,0,1,.45-2.2,3.31,3.31,0,0,1,1.27-1.45,3.6,3.6,0,0,1,1.92-.51,3.78,3.78,0,0,1,2.48.73,3.09,3.09,0,0,1,1,2.18h-2a1.62,1.62,0,0,0-.46-1,1.47,1.47,0,0,0-1-.3,1.34,1.34,0,0,0-1.2.66,3.5,3.5,0,0,0-.43,1.88v.52a3.43,3.43,0,0,0,.44,1.92,1.54,1.54,0,0,0,1.37.64,1.73,1.73,0,0,0,1.2-.36V7.12H35.08V5.71h3.49Z"/><path class="cls-1" d="M44.35,10.27H42.3V1.73h2.05Z"/><path class="cls-1" d="M53.13,8.67H50.31l-.49,1.59h-2.2l3.13-8.53h1.93l3.15,8.53H53.63ZM50.8,7.08h1.83l-.92-3Z"/></g></svg>